<svg preserveAspectRatio="xMidYMid meet" width="100%" height="100%" overflow="visible" style="display: block;" viewBox="0 0 56 56" fill="none" xmlns="http://www.w3.org/2000/svg">
<g id="logo">
<circle id="Ellipse 24" cx="28" cy="28" r="26" fill="var(--fill-0, white)" stroke="var(--stroke-0, #DB3738)" stroke-width="4"/>
<g id="Group">
<path id="Vector" d="M41.2125 41.5625C40.0312 40.95 38.7625 40.3375 36.8812 40.3375C35.2187 40.3375 33.8625 40.95 32.5937 41.5625C31.2375 42.175 29.8375 42.8312 27.9562 42.8312C26.2937 42.8312 25.0687 42.2625 23.7562 41.65C22.4 41.0375 21 40.3812 19.075 40.3812C17.4125 40.3812 16.0562 40.9937 14.7437 41.5625C13.3875 42.175 11.9437 42.8312 10.1062 42.8312C10.0187 42.8312 9.88749 42.8312 9.79999 42.8312C9.97499 43.05 10.1937 43.3125 10.3687 43.5312C12.25 43.4875 13.65 42.8312 15.0062 42.2187C16.3187 41.65 17.5 41.0812 19.0312 41.0812C20.7812 41.0812 22.05 41.6937 23.4062 42.3062C24.7187 42.9187 26.1187 43.575 27.9125 43.575C29.925 43.575 31.4125 42.875 32.8562 42.2187C34.125 41.65 35.35 41.0812 36.8812 41.0812C38.5875 41.0812 39.725 41.65 40.9062 42.2625C42.175 42.9187 43.5312 43.575 45.7187 43.575C45.9375 43.3562 46.1125 43.0937 46.3312 42.8312C46.1562 42.8312 45.9375 42.875 45.7625 42.875C43.7062 42.7875 42.4375 42.175 41.2125 41.5625Z" fill="var(--fill-0, #4D4D4C)"/>
<path id="Vector_2" d="M36.8813 41.6499C35.2188 41.6499 33.8625 42.2624 32.5938 42.8749C31.2375 43.4874 29.8375 44.1437 27.9563 44.1437C26.2938 44.1437 25.0687 43.5749 23.7562 42.9624C22.4 42.3499 21 41.6937 19.075 41.6937C17.4125 41.6937 16.0563 42.3062 14.7438 42.8749C13.6063 43.3999 12.3812 43.9249 10.9375 44.0999C11.1562 44.3187 11.3312 44.5374 11.55 44.7124C12.9062 44.4937 14 44.0124 15.05 43.5312C16.3625 42.9624 17.5437 42.3937 19.075 42.3937C20.825 42.3937 22.0937 43.0062 23.45 43.6187C24.7625 44.2312 26.1625 44.8874 27.9563 44.8874C29.9688 44.8874 31.4562 44.1874 32.9 43.5312C34.1687 42.9187 35.3938 42.3937 36.925 42.3937C38.6313 42.3937 39.7687 42.9624 40.95 43.5749C42 44.0999 43.05 44.6249 44.5813 44.8437C44.8 44.6249 45.0188 44.4062 45.1938 44.1874C43.4875 44.0999 42.35 43.4874 41.2563 42.9624C39.9875 42.2624 38.7625 41.6499 36.8813 41.6499Z" fill="var(--fill-0, #4D4D4C)"/>
<path id="Vector_3" d="M36.8813 42.9624C35.2188 42.9624 33.8625 43.5749 32.5938 44.1874C31.2375 44.7999 29.8375 45.4562 27.9563 45.4562C26.2938 45.4562 25.0687 44.8874 23.7562 44.2749C22.4 43.6624 21 43.0062 19.075 43.0062C17.4125 43.0062 16.0563 43.6187 14.7438 44.1874C13.9125 44.5812 13.0375 44.9749 12.0312 45.1937C12.25 45.3687 12.425 45.5874 12.6437 45.7624C13.475 45.4999 14.2625 45.1499 15.0062 44.8437C16.3187 44.2749 17.5 43.7062 19.0312 43.7062C20.7812 43.7062 22.05 44.3187 23.4062 44.9312C24.7188 45.5437 26.1187 46.1999 27.9125 46.1999C29.925 46.1999 31.4125 45.4999 32.8562 44.8437C34.125 44.2749 35.35 43.7062 36.8813 43.7062C38.5875 43.7062 39.725 44.2749 40.9062 44.8437C41.65 45.2374 42.3937 45.5874 43.3562 45.8499C43.575 45.6749 43.7937 45.4562 44.0125 45.2812C42.9187 45.0624 42.0875 44.6249 41.2563 44.1874C39.9875 43.6187 38.7625 42.9624 36.8813 42.9624Z" fill="var(--fill-0, #4D4D4C)"/>
<path id="Vector_4" d="M36.8813 44.3187C35.2188 44.3187 33.8625 44.9312 32.5938 45.5437C31.2375 46.1562 29.8375 46.8124 27.9563 46.8124C26.2938 46.8124 25.0688 46.2437 23.7563 45.6312C22.4 45.0187 21 44.3624 19.075 44.3624C17.4125 44.3624 16.0563 44.9749 14.7438 45.5437C14.2188 45.7624 13.7375 46.0249 13.1688 46.1999C13.3875 46.3749 13.6063 46.5499 13.825 46.7249C14.2625 46.5499 14.6563 46.3749 15.05 46.1999C16.3625 45.6312 17.5438 45.0624 19.075 45.0624C20.825 45.0624 22.0938 45.6749 23.45 46.2874C24.7625 46.8999 26.1625 47.5562 27.9563 47.5562C29.9688 47.5562 31.4563 46.8562 32.9 46.1999C34.1688 45.5874 35.3938 45.0624 36.925 45.0624C38.6313 45.0624 39.7688 45.6312 40.95 46.2437C41.3438 46.4624 41.7813 46.6812 42.2188 46.8562C42.4375 46.6812 42.6563 46.5062 42.875 46.3312C42.3063 46.1124 41.7813 45.8499 41.2563 45.5874C39.9875 44.9312 38.7625 44.3187 36.8813 44.3187Z" fill="var(--fill-0, #4D4D4C)"/>
<path id="Vector_5" d="M36.8812 45.6312C35.2187 45.6312 33.8625 46.2437 32.5937 46.8562C31.2375 47.4687 29.8375 48.1249 27.9562 48.1249C26.2937 48.1249 25.0687 47.5562 23.7562 46.9437C22.4 46.2874 21 45.6749 19.075 45.6749C17.4125 45.6749 16.0562 46.2874 14.7437 46.8562C14.6125 46.9437 14.4375 46.9874 14.3062 47.0749C14.525 47.2499 14.7437 47.3812 14.9625 47.5562C15.0062 47.5562 15.0062 47.5562 15.05 47.5124C16.3625 46.9437 17.5437 46.3749 19.075 46.3749C20.825 46.3749 22.0937 46.9874 23.45 47.5999C24.7625 48.2124 26.1625 48.8687 27.9562 48.8687C29.9687 48.8687 31.4562 48.1687 32.9 47.5124C34.1687 46.8999 35.3937 46.3749 36.925 46.3749C38.6312 46.3749 39.7687 46.9437 40.95 47.5562C40.9937 47.5999 41.0375 47.5999 41.125 47.6437C41.3437 47.5124 41.5625 47.3374 41.7812 47.2062C41.6062 47.1187 41.4312 47.0312 41.3 46.9437C39.9875 46.2874 38.7625 45.6312 36.8812 45.6312Z" fill="var(--fill-0, #4D4D4C)"/>
<path id="Vector_6" d="M32.5062 48.1687C31.15 48.7812 29.75 49.4374 27.8687 49.4374C26.2062 49.4374 24.9812 48.8687 23.6687 48.2562C22.3125 47.6437 20.9125 46.9874 18.9875 46.9874C17.6312 46.9874 16.4937 47.3812 15.4 47.8624C15.6625 48.0374 15.8812 48.1687 16.1437 48.2999C17.0187 47.9499 17.9375 47.6874 18.9875 47.6874C20.7375 47.6874 22.0062 48.2999 23.3625 48.9124C24.675 49.5249 26.075 50.1812 27.8687 50.1812C29.8812 50.1812 31.3687 49.4812 32.8125 48.8249C34.0812 48.2562 35.3062 47.6874 36.8375 47.6874C38.0625 47.6874 38.9812 47.9499 39.8125 48.3437C40.075 48.2124 40.2937 48.0374 40.5125 47.9062C39.5062 47.4249 38.3687 46.9874 36.8375 46.9874C35.2187 46.9874 33.8187 47.5999 32.5062 48.1687Z" fill="var(--fill-0, #4D4D4C)"/>
</g>
<g id="Group_2">
<path id="Vector_7" d="M41.0813 21.0875C40.9063 21.9625 40.0313 22.8812 39.55 23.275C38.4563 24.15 31.1938 28.5687 30.3625 29.575C29.5313 30.5812 29.4 32.1125 29.4 33.25V41.7812H30.5375C30.5375 41.0375 30.5375 39.7687 30.5375 39.5937C30.5375 38.85 30.975 37.6687 31.85 36.75C33.3375 35.175 36.7938 33.25 39.1125 31.5875C40.9938 30.1875 41.125 28.3062 41.125 26.6875C41.125 25.3312 41.125 21.5687 41.125 20.8687L41.0813 21.0875Z" fill="var(--fill-0, #4BA55A)"/>
<path id="Vector_8" d="M29.4438 29.05C30.2313 28.0437 37.7563 23.4937 38.8063 22.6187C39.8563 21.7437 41.125 20.4312 41.125 18.725C41.125 17.2812 41.125 10.1937 41.125 9.1875C41.125 10.5437 40.3813 11.55 39.4188 12.8187C38.325 14.2625 33.2938 16.975 30.8 18.725C28.3063 20.475 27.475 22.1812 27.475 24.325C27.475 26.1187 27.475 37.9312 27.475 41.7375H28.5688C28.5688 39.2437 28.5688 33.5125 28.5688 32.6375C28.525 31.5 28.6125 30.0562 29.4438 29.05Z" fill="var(--fill-0, #4BA55A)"/>
<path id="Vector_9" d="M23.7563 19.1625C21.4813 17.4125 16.8438 13.6937 16.275 12.95C15.7063 12.2062 14.525 10.8937 14.525 9.27498C14.525 10.4562 14.525 17.0625 14.525 18.1562C14.525 19.425 15.1375 21.7 17.325 23.3187C19.5125 24.9375 22.6188 27.2562 23.5813 28.2187C24.5 29.1375 25.375 30.8437 25.375 33.25C25.375 35 25.375 39.6812 25.375 41.825H26.4688C26.4688 38.15 26.4688 27.0375 26.4688 24.8062C26.5563 22.0062 26.0313 20.9125 23.7563 19.1625Z" fill="var(--fill-0, #4BA55A)"/>
</g>
</g>
</svg>
