<svg preserveAspectRatio="xMidYMid meet" width="100%" height="100%" overflow="visible" style="display: block;" viewBox="0 0 56 26" fill="none" xmlns="http://www.w3.org/2000/svg">
<g id="logo">
<path id="path3186 1" d="M20.7812 0C19.2062 0 17.85 1.23607 17.85 2.85574C17.85 4.43279 19.1625 5.71148 20.7812 5.71148C22.4 5.71148 23.7125 4.43279 23.7125 2.85574C23.6687 1.27869 22.3562 0 20.7812 0ZM35.175 0C33.6 0 32.2437 1.23607 32.2437 2.85574C32.2437 4.43279 33.5125 5.71148 35.175 5.71148C36.8375 5.71148 38.1062 4.43279 38.1062 2.85574C38.1062 1.27869 36.7937 0 35.175 0ZM17.9375 8.05574V26H21.9625V13.4262H22.0062L26.3812 26H29.5312L33.95 13.3836V26H38.0187V8.05574H32.1562L28.0875 20.3738H28.0437L23.7562 8.05574H17.9375Z" fill="var(--fill-0, white)"/>
<path id="path3194 1" d="M0 11.3804V8.05576H15.225V11.3804H9.625V25.9574H5.55625V11.3804H0Z" fill="var(--fill-0, white)"/>
<path id="path3198 1" d="M49.4812 8.05576C50.3125 8.05576 51.1 8.14101 51.8438 8.26888C52.5438 8.43937 53.1563 8.65248 53.6375 8.99347C54.1188 9.33445 54.5125 9.8033 54.775 10.3574C55.0375 10.9115 55.1688 11.6361 55.1688 12.4885C55.1688 13.3836 54.95 14.1508 54.5562 14.7476C54.1625 15.3443 53.55 15.8558 52.7625 16.1967C53.8563 16.4951 54.6437 17.0492 55.2125 17.859C55.7375 18.6263 56 19.6066 56 20.7574C56 21.6525 55.825 22.4197 55.475 23.1443C55.125 23.7836 54.6438 24.3377 54.075 24.764C53.5063 25.1902 52.8063 25.4885 52.0625 25.7017C51.3188 25.9148 50.5312 26 49.7 26H41.125V8.05576H49.4812ZM49 15.3443C49.7 15.3443 50.2688 15.1738 50.7063 14.8328C51.1438 14.4918 51.3625 13.9804 51.3625 13.2131C51.3625 12.7869 51.275 12.4459 51.1438 12.1902C51.0125 11.9344 50.7938 11.7213 50.5313 11.5508C50.2688 11.3804 50.0063 11.2951 49.6563 11.2525C49.35 11.2099 49 11.1672 48.65 11.1672H44.9312V15.3443H49ZM49.2188 22.9312C49.6125 22.9312 49.9625 22.8885 50.3125 22.8033C50.6625 22.7181 50.9687 22.5902 51.2313 22.4197C51.4938 22.2492 51.7125 21.9935 51.8875 21.6951C52.0625 21.3967 52.1063 21.0131 52.1063 20.5443C52.1063 19.6492 51.8438 18.9672 51.3188 18.5836C50.7938 18.2 50.1375 17.9869 49.3062 17.9869H45.0188V22.9312H49.2188" fill="var(--fill-0, white)"/>
</g>
</svg>
