<svg preserveAspectRatio="xMidYMid meet" width="100%" height="100%" overflow="visible" style="display: block;" viewBox="0 0 25.7429 9.42966" fill="none" xmlns="http://www.w3.org/2000/svg">
<path id="Bitpay" fill-rule="evenodd" clip-rule="evenodd" d="M2.56432 6.08884C2.37837 6.19504 2.18038 6.24804 1.97051 6.24804H1.80855C1.76648 6.24804 1.7064 6.24443 1.53288 6.2128L2.11956 3.6432C2.22748 3.54337 2.34391 3.47855 2.47889 3.44721C2.61386 3.41601 2.70079 3.40759 2.78486 3.40759C3.04265 3.40759 3.24213 3.48464 3.33817 3.65332C3.43406 3.82187 3.48212 4.05607 3.48212 4.35579C3.48212 4.59941 3.44304 4.83361 3.36515 5.05841C3.28712 5.2832 3.18069 5.48458 3.04578 5.6626C2.9108 5.84055 2.7502 5.9827 2.56432 6.08884ZM3.88705 2.39808C3.67697 2.29195 3.42815 2.23881 3.14018 2.23881C3.00215 2.23881 2.87322 2.25445 2.75333 2.28565C2.63323 2.317 2.52014 2.3574 2.40025 2.41358L2.95131 0L1.5566 0.224794L0 7.03491C0.173922 7.12243 0.358311 7.19107 0.553371 7.24095C0.748226 7.2909 0.932683 7.32833 1.10667 7.35338C1.2806 7.37829 1.43515 7.3923 1.57013 7.39555C1.7051 7.3986 1.79958 7.40022 1.85354 7.40022C2.27336 7.40022 2.66334 7.31737 3.02322 7.15194C3.38316 6.98658 3.69498 6.76179 3.95903 6.47756C4.22293 6.1934 4.43138 5.85929 4.58437 5.47522C4.73736 5.09115 4.81382 4.68366 4.81382 4.25276C4.81382 3.97178 4.78072 3.70949 4.7148 3.46594C4.64874 3.22233 4.54679 3.01013 4.40889 2.82892C4.27085 2.64785 4.09693 2.50429 3.88705 2.39808ZM7.57583 1.63767L7.78074 0.740265H6.44469L6.23977 1.63767H7.57583ZM9.50912 6.21081C9.33696 6.21081 9.20165 6.18534 9.10344 6.13404C9.00496 6.08289 8.93583 6.01086 8.89594 5.91802C8.85584 5.82533 8.84062 5.71488 8.84979 5.58681C8.85903 5.45888 8.88207 5.32133 8.91898 5.17402L9.32473 3.40758H10.8463L11.1229 2.23634H9.5921L9.94253 0.74826L8.51323 0.978715L7.6095 4.95319C7.53576 5.27959 7.49267 5.59014 7.48043 5.88441C7.468 6.1789 7.51109 6.43971 7.6095 6.66684C7.70778 6.89411 7.87375 7.07334 8.10748 7.20445C8.34101 7.33556 8.66996 7.40122 9.09419 7.40122C9.38923 7.40122 9.6443 7.37561 9.85955 7.32445C9.88177 7.31915 9.91555 7.31065 9.93743 7.30514L10.2157 6.09343C10.1222 6.12661 10.0284 6.14883 9.93791 6.16765C9.7996 6.19645 9.65667 6.21081 9.50912 6.21081ZM25.7429 2.23795H24.4069L23.6298 5.64163H23.6311L23.5243 6.10982C23.4498 6.13162 23.3756 6.15122 23.3019 6.16657C23.1636 6.19537 23.0207 6.2098 22.8731 6.2098C22.7009 6.2098 22.5656 6.18426 22.4674 6.13296C22.3689 6.08181 22.2998 6.00985 22.2599 5.91694C22.2198 5.82425 22.2045 5.71387 22.2138 5.58573C22.223 5.4578 22.2461 5.32025 22.283 5.17294L22.6886 3.4065L22.9561 2.23526L22.9562 2.23491H21.5913L20.9735 4.95218C20.8997 5.27858 20.8567 5.58906 20.8444 5.8834C20.832 6.17782 20.8751 6.4387 20.9735 6.66576C21.0718 6.89303 21.2377 7.07233 21.4715 7.20344C21.705 7.33448 22.0339 7.40021 22.4581 7.40021C22.7532 7.40021 23.0083 7.3746 23.2235 7.32337C23.2322 7.32132 23.2406 7.31913 23.2491 7.31693L23.2485 7.31948C23.1887 7.59982 23.0676 7.82716 22.8732 8.00462C22.6786 8.18222 22.3899 8.27102 22.007 8.27102C21.8436 8.27102 21.6951 8.2609 21.5605 8.24151L21.2975 9.39329C21.4754 9.41727 21.6726 9.42966 21.8903 9.42966C22.2972 9.42966 22.6533 9.38126 22.9585 9.28475C23.2636 9.18816 23.5253 9.04184 23.7437 8.84556C23.9621 8.64935 24.1446 8.40319 24.2913 8.1075C24.4378 7.81152 24.556 7.46128 24.6458 7.05627L25.5702 3.01033L25.5669 3.00885L25.7429 2.23795ZM19.1898 3.40757C18.5669 3.40757 18.4479 3.40757 18.1926 3.5454C18.0115 3.64319 17.8615 3.79022 17.7297 3.96174C17.5979 4.13332 17.4946 4.3313 17.4198 4.55581C17.3447 4.78046 17.3073 5.01431 17.3073 5.25757C17.3073 5.55694 17.3553 5.79412 17.4512 5.96868C17.5469 6.14337 17.7238 6.23062 17.9814 6.23062C18.1192 6.23062 18.2435 6.2026 18.3544 6.14642C18.4652 6.09031 18.5836 5.9967 18.7094 5.86572C18.7213 5.70992 18.7409 5.54619 18.7678 5.37453C18.7924 5.21794 18.8231 5.07173 18.8511 4.93812L18.8511 4.93808L18.8511 4.938L18.8511 4.9379L18.8511 4.93785L18.8512 4.93782L18.859 4.90046L19.1898 3.40757ZM20.1384 5.14528C20.0544 5.5009 20.0305 5.85794 20.0664 6.21661C20.1025 6.57541 20.2342 7.12505 20.3628 7.40022H19.0699C18.9522 7.19298 18.9261 7.06779 18.9081 6.98126L18.9081 6.98122C18.902 6.95164 18.8968 6.92657 18.8892 6.90429C18.7213 7.04785 18.5356 7.1663 18.332 7.25984C18.1282 7.35338 17.9005 7.40022 17.6489 7.40022C17.3493 7.40022 17.0931 7.34553 16.8805 7.23649C16.6677 7.12738 16.494 6.98078 16.3592 6.79674C16.2244 6.61284 16.1269 6.3976 16.0672 6.15116C16.0072 5.90478 15.9773 5.64121 15.9773 5.36052C15.9773 4.93011 16.0505 4.52467 16.1975 4.14422C16.3442 3.76376 16.548 3.43155 16.8086 3.14768C17.0692 2.86387 17.6982 2.23803 18.7304 2.23803L20.8031 2.23796L20.1384 5.14528ZM12.7014 6.25073C12.5505 6.25073 12.4239 6.2382 12.3214 6.21302L12.9683 3.40759C12.9683 3.40759 13.2975 3.40759 13.4957 3.40836C13.7791 3.40957 13.9801 3.50969 14.0948 3.69811C14.2093 3.88647 14.2667 4.11579 14.2667 4.38573C14.2667 4.6621 14.2289 4.91477 14.1536 5.14395C14.078 5.37328 13.9726 5.56941 13.8369 5.73265C13.7012 5.89603 13.5368 6.02317 13.3438 6.11417C13.1507 6.20523 12.9366 6.25073 12.7014 6.25073ZM15.3885 5.53955C15.5333 5.15973 15.6057 4.74057 15.6057 4.28206C15.6057 3.99953 15.5679 3.73434 15.4926 3.48612C15.4171 3.23819 15.301 3.02153 15.1443 2.83622C14.9873 2.65105 14.7869 2.50508 14.5426 2.39824C14.2983 2.29154 14.0072 2.23812 13.6695 2.23812L13.2045 2.23809L11.8852 2.23812L10.3309 9.04823H11.6699L12.0771 7.34335C12.2821 7.38106 12.4872 7.39988 12.6923 7.39988C13.1145 7.39988 13.5051 7.3229 13.864 7.16915C14.2228 7.01532 14.5304 6.80029 14.7869 6.52385C15.0432 6.24768 15.2438 5.91958 15.3885 5.53955ZM4.92193 7.40121L6.1014 2.23499H7.43745L6.25799 7.40121H4.92193Z" fill="var(--fill-0, #002855)"/>
</svg>
