<svg preserveAspectRatio="xMidYMid meet" width="100%" height="100%" overflow="visible" style="display: block;" viewBox="0 0 17.1 14.5" fill="none" xmlns="http://www.w3.org/2000/svg">
<path id="DinersClub" fill-rule="evenodd" clip-rule="evenodd" d="M7.09557 14.5H9.69166C13.7441 14.5 16.9734 11.285 17.1 7.31349V7.25045C17.0367 3.21591 13.7441 -0.0621453 9.69166 0.000894252H6.77897C2.9165 0.126973 -0.12282 3.40503 0.0038181 7.31349C0.0038181 11.2219 3.16978 14.437 7.09557 14.5ZM1.27021 7.25042C1.27021 3.97236 3.99293 1.26166 7.28553 1.26166C10.5781 1.26166 13.3008 3.97236 13.3008 7.25042C13.3008 10.5285 10.5781 13.2392 7.28553 13.2392C3.99293 13.2392 1.27021 10.5285 1.27021 7.25042ZM8.23532 11.285V3.27893C10.4515 3.84629 11.8445 6.05267 11.2746 8.25906C10.8947 9.77201 9.75498 10.9067 8.23532 11.285ZM3.35974 6.24179C2.78986 8.44818 4.11957 10.7176 6.33574 11.285V3.27893C4.8794 3.65717 3.73965 4.79188 3.35974 6.24179Z" fill="var(--fill-0, #0079BE)"/>
</svg>
